<?xml version="1.0" encoding="UTF-8" standalone="no"?>
<!DOCTYPE svg PUBLIC "-//W3C//DTD SVG 1.1//EN"
 "http://www.w3.org/Graphics/SVG/1.1/DTD/svg11.dtd">
<!-- Generated by graphviz version 12.1.2 (20240928.0832)
 -->
<!-- Title: public.loan_entries Pages: 1 -->
<svg width="818pt" height="725pt"
 viewBox="0.00 0.00 817.98 725.20" xmlns="http://www.w3.org/2000/svg" xmlns:xlink="http://www.w3.org/1999/xlink">
<g id="graph0" class="graph" transform="scale(1 1) rotate(0) translate(4 721.2)">
<title>public.loan_entries</title>
<polygon fill="white" stroke="none" points="-4,4 -4,-721.2 813.98,-721.2 813.98,4 -4,4"/>
<!-- public.loan_entries -->
<g id="node1" class="node">
<title>public.loan_entries</title>
<polygon fill="#efefef" stroke="none" points="287.87,-635.4 287.87,-671 563.82,-671 563.82,-635.4 287.87,-635.4"/>
<polygon fill="none" stroke="black" points="287.87,-635.4 287.87,-671 563.82,-671 563.82,-635.4 287.87,-635.4"/>
<text text-anchor="start" x="294.87" y="-648.8" font-family="Arial Bold" font-size="18.00">public.loan_entries</text>
<text text-anchor="start" x="432.33" y="-648.8" font-family="Arial" font-size="14.00">    </text>
<text text-anchor="start" x="463.45" y="-648.8" font-family="Arial" font-size="14.00" fill="#666666">[BASE TABLE]</text>
<polygon fill="none" stroke="black" points="287.87,-604.6 287.87,-635.4 563.82,-635.4 563.82,-604.6 287.87,-604.6"/>
<text text-anchor="start" x="294.87" y="-616.8" font-family="Arial" font-size="14.00">id </text>
<text text-anchor="start" x="309.66" y="-616.8" font-family="Arial" font-size="14.00" fill="#666666">[text]</text>
<polygon fill="none" stroke="black" points="287.87,-573.8 287.87,-604.6 563.82,-604.6 563.82,-573.8 287.87,-573.8"/>
<text text-anchor="start" x="294.87" y="-586" font-family="Arial" font-size="14.00">updated_at </text>
<text text-anchor="start" x="368.83" y="-586" font-family="Arial" font-size="14.00" fill="#666666">[timestamp with time zone]</text>
<polygon fill="none" stroke="black" points="287.87,-543 287.87,-573.8 563.82,-573.8 563.82,-543 287.87,-543"/>
<text text-anchor="start" x="294.87" y="-555.2" font-family="Arial" font-size="14.00">deleted_at </text>
<text text-anchor="start" x="364.15" y="-555.2" font-family="Arial" font-size="14.00" fill="#666666">[timestamp with time zone]</text>
<polygon fill="none" stroke="black" points="287.87,-512.2 287.87,-543 563.82,-543 563.82,-512.2 287.87,-512.2"/>
<text text-anchor="start" x="294.87" y="-524.4" font-family="Arial" font-size="14.00">equipment_id </text>
<text text-anchor="start" x="382.82" y="-524.4" font-family="Arial" font-size="14.00" fill="#666666">[text]</text>
<polygon fill="none" stroke="black" points="287.87,-481.4 287.87,-512.2 563.82,-512.2 563.82,-481.4 287.87,-481.4"/>
<text text-anchor="start" x="294.87" y="-493.6" font-family="Arial" font-size="14.00">quantity </text>
<text text-anchor="start" x="347.79" y="-493.6" font-family="Arial" font-size="14.00" fill="#666666">[integer]</text>
<polygon fill="none" stroke="black" points="287.87,-450.6 287.87,-481.4 563.82,-481.4 563.82,-450.6 287.87,-450.6"/>
<text text-anchor="start" x="294.87" y="-462.8" font-family="Arial" font-size="14.00">issue_id </text>
<text text-anchor="start" x="350.13" y="-462.8" font-family="Arial" font-size="14.00" fill="#666666">[text]</text>
<polygon fill="none" stroke="black" stroke-width="3" points="286.37,-449.1 286.37,-672.5 565.32,-672.5 565.32,-449.1 286.37,-449.1"/>
</g>
<!-- public.equipment -->
<g id="node2" class="node">
<title>public.equipment</title>
<polygon fill="#efefef" stroke="none" points="112.87,-258.8 112.87,-294.4 376.83,-294.4 376.83,-258.8 112.87,-258.8"/>
<polygon fill="none" stroke="black" points="112.87,-258.8 112.87,-294.4 376.83,-294.4 376.83,-258.8 112.87,-258.8"/>
<text text-anchor="start" x="119.87" y="-272.2" font-family="Arial Bold" font-size="18.00">public.equipment</text>
<text text-anchor="start" x="245.34" y="-272.2" font-family="Arial" font-size="14.00">    </text>
<text text-anchor="start" x="276.46" y="-272.2" font-family="Arial" font-size="14.00" fill="#666666">[BASE TABLE]</text>
<polygon fill="none" stroke="black" points="112.87,-228 112.87,-258.8 376.83,-258.8 376.83,-228 112.87,-228"/>
<text text-anchor="start" x="119.87" y="-240.2" font-family="Arial" font-size="14.00">id </text>
<text text-anchor="start" x="134.65" y="-240.2" font-family="Arial" font-size="14.00" fill="#666666">[text]</text>
<polygon fill="none" stroke="black" points="112.87,-197.2 112.87,-228 376.83,-228 376.83,-197.2 112.87,-197.2"/>
<text text-anchor="start" x="119.87" y="-209.4" font-family="Arial" font-size="14.00">updated_at </text>
<text text-anchor="start" x="193.82" y="-209.4" font-family="Arial" font-size="14.00" fill="#666666">[timestamp with time zone]</text>
<polygon fill="none" stroke="black" points="112.87,-166.4 112.87,-197.2 376.83,-197.2 376.83,-166.4 112.87,-166.4"/>
<text text-anchor="start" x="119.87" y="-178.6" font-family="Arial" font-size="14.00">deleted_at </text>
<text text-anchor="start" x="189.15" y="-178.6" font-family="Arial" font-size="14.00" fill="#666666">[timestamp with time zone]</text>
<polygon fill="none" stroke="black" points="112.87,-135.6 112.87,-166.4 376.83,-166.4 376.83,-135.6 112.87,-135.6"/>
<text text-anchor="start" x="119.87" y="-147.8" font-family="Arial" font-size="14.00">name </text>
<text text-anchor="start" x="158.78" y="-147.8" font-family="Arial" font-size="14.00" fill="#666666">[text]</text>
<polygon fill="none" stroke="black" points="112.87,-104.8 112.87,-135.6 376.83,-135.6 376.83,-104.8 112.87,-104.8"/>
<text text-anchor="start" x="119.87" y="-117" font-family="Arial" font-size="14.00">max_quantity </text>
<text text-anchor="start" x="207.02" y="-117" font-family="Arial" font-size="14.00" fill="#666666">[integer]</text>
<polygon fill="none" stroke="black" points="112.87,-74 112.87,-104.8 376.83,-104.8 376.83,-74 112.87,-74"/>
<text text-anchor="start" x="119.87" y="-86.2" font-family="Arial" font-size="14.00">note </text>
<text text-anchor="start" x="151" y="-86.2" font-family="Arial" font-size="14.00" fill="#666666">[text]</text>
</g>
<!-- public.loan_entries&#45;&gt;public.equipment -->
<g id="edge1" class="edge">
<title>public.loan_entries:equipment_id&#45;&gt;public.equipment:id</title>
<path fill="none" stroke="black" d="M276.56,-526.53C236.45,-517.28 264.93,-449.85 287.87,-404.4 310.15,-360.26 354.49,-381.71 376.83,-337.6 395.74,-300.25 419.7,-243.4 377.83,-243.4"/>
<polygon fill="black" stroke="black" points="276.59,-526.54 286.07,-532.04 281.9,-527.08 286.21,-527.53 286.21,-527.53 286.21,-527.53 281.9,-527.08 287,-523.09 276.59,-526.54"/>
<text text-anchor="start" x="7" y="-537.6" font-family="Arial" font-size="10.00">FOREIGN KEY (equipment_id) REFERENCES equipment(id)</text>
</g>
<!-- public.issues -->
<g id="node3" class="node">
<title>public.issues</title>
<polygon fill="#efefef" stroke="none" points="481.01,-289.6 481.01,-325.2 734.69,-325.2 734.69,-289.6 481.01,-289.6"/>
<polygon fill="none" stroke="black" points="481.01,-289.6 481.01,-325.2 734.69,-325.2 734.69,-289.6 481.01,-289.6"/>
<text text-anchor="start" x="499.35" y="-303" font-family="Arial Bold" font-size="18.00">public.issues</text>
<text text-anchor="start" x="591.85" y="-303" font-family="Arial" font-size="14.00">    </text>
<text text-anchor="start" x="622.97" y="-303" font-family="Arial" font-size="14.00" fill="#666666">[BASE TABLE]</text>
<polygon fill="none" stroke="black" points="481.01,-258.8 481.01,-289.6 734.69,-289.6 734.69,-258.8 481.01,-258.8"/>
<text text-anchor="start" x="488.01" y="-271" font-family="Arial" font-size="14.00">id </text>
<text text-anchor="start" x="502.79" y="-271" font-family="Arial" font-size="14.00" fill="#666666">[text]</text>
<polygon fill="none" stroke="black" points="481.01,-228 481.01,-258.8 734.69,-258.8 734.69,-228 481.01,-228"/>
<text text-anchor="start" x="488.01" y="-240.2" font-family="Arial" font-size="14.00">updated_at </text>
<text text-anchor="start" x="561.96" y="-240.2" font-family="Arial" font-size="14.00" fill="#666666">[timestamp with time zone]</text>
<polygon fill="none" stroke="black" points="481.01,-197.2 481.01,-228 734.69,-228 734.69,-197.2 481.01,-197.2"/>
<text text-anchor="start" x="488.01" y="-209.4" font-family="Arial" font-size="14.00">deleted_at </text>
<text text-anchor="start" x="557.29" y="-209.4" font-family="Arial" font-size="14.00" fill="#666666">[timestamp with time zone]</text>
<polygon fill="none" stroke="black" points="481.01,-166.4 481.01,-197.2 734.69,-197.2 734.69,-166.4 481.01,-166.4"/>
<text text-anchor="start" x="488.01" y="-178.6" font-family="Arial" font-size="14.00">address </text>
<text text-anchor="start" x="541.7" y="-178.6" font-family="Arial" font-size="14.00" fill="#666666">[text]</text>
<polygon fill="none" stroke="black" points="481.01,-135.6 481.01,-166.4 734.69,-166.4 734.69,-135.6 481.01,-135.6"/>
<text text-anchor="start" x="488.01" y="-147.8" font-family="Arial" font-size="14.00">name </text>
<text text-anchor="start" x="526.92" y="-147.8" font-family="Arial" font-size="14.00" fill="#666666">[text]</text>
<polygon fill="none" stroke="black" points="481.01,-104.8 481.01,-135.6 734.69,-135.6 734.69,-104.8 481.01,-104.8"/>
<text text-anchor="start" x="488.01" y="-117" font-family="Arial" font-size="14.00">display_id </text>
<text text-anchor="start" x="554.16" y="-117" font-family="Arial" font-size="14.00" fill="#666666">[character(4)]</text>
<polygon fill="none" stroke="black" points="481.01,-74 481.01,-104.8 734.69,-104.8 734.69,-74 481.01,-74"/>
<text text-anchor="start" x="488.01" y="-86.2" font-family="Arial" font-size="14.00">status </text>
<text text-anchor="start" x="529.25" y="-86.2" font-family="Arial" font-size="14.00" fill="#666666">[text]</text>
<polygon fill="none" stroke="black" points="481.01,-43.2 481.01,-74 734.69,-74 734.69,-43.2 481.01,-43.2"/>
<text text-anchor="start" x="488.01" y="-55.4" font-family="Arial" font-size="14.00">note </text>
<text text-anchor="start" x="519.14" y="-55.4" font-family="Arial" font-size="14.00" fill="#666666">[text]</text>
</g>
<!-- public.loan_entries&#45;&gt;public.issues -->
<g id="edge2" class="edge">
<title>public.loan_entries:issue_id&#45;&gt;public.issues:id</title>
<path fill="none" stroke="black" d="M574.83,-463.37C588.03,-454.26 576.65,-423.62 563.82,-404.4 541.54,-371.02 503.19,-401.85 481.01,-368.4 457.86,-333.51 438.14,-274.2 480.01,-274.2"/>
<polygon fill="black" stroke="black" points="574.82,-463.37 564,-461.56 569.66,-464.73 565.47,-465.83 565.47,-465.83 565.47,-465.83 569.66,-464.73 566.29,-470.27 574.82,-463.37"/>
<text text-anchor="start" x="571.82" y="-476" font-family="Arial" font-size="10.00">FOREIGN KEY (issue_id) REFERENCES issues(id)</text>
</g>
</g>
</svg>
